<?xml version="1.0" encoding="UTF-8" standalone="no"?>
<svg
   xmlns:dc="http://purl.org/dc/elements/1.1/"
   xmlns:cc="http://creativecommons.org/ns#"
   xmlns:rdf="http://www.w3.org/1999/02/22-rdf-syntax-ns#"
   xmlns:svg="http://www.w3.org/2000/svg"
   xmlns="http://www.w3.org/2000/svg"
   xmlns:sodipodi="http://sodipodi.sourceforge.net/DTD/sodipodi-0.dtd"
   xmlns:inkscape="http://www.inkscape.org/namespaces/inkscape"
   width="197mm"
   height="45mm"
   viewBox="0 0 197 45"
   version="1.1"
   id="svg8"
   inkscape:version="1.0.1 (3bc2e813f5, 2020-09-07)"
   sodipodi:docname="desenho.svg">
  <defs
     id="defs2" />
  <sodipodi:namedview
     id="base"
     pagecolor="#ffffff"
     bordercolor="#666666"
     borderopacity="1.0"
     inkscape:pageopacity="0.0"
     inkscape:pageshadow="2"
     inkscape:zoom="1.0797765"
     inkscape:cx="389.48015"
     inkscape:cy="225.36055"
     inkscape:document-units="mm"
     inkscape:current-layer="layer1"
     inkscape:document-rotation="0"
     showgrid="false"
     inkscape:snap-bbox="true"
     inkscape:bbox-nodes="true"
     inkscape:bbox-paths="true"
     inkscape:snap-bbox-edge-midpoints="true"
     inkscape:snap-bbox-midpoints="true"
     inkscape:snap-global="false"
     inkscape:window-width="1366"
     inkscape:window-height="715"
     inkscape:window-x="-8"
     inkscape:window-y="-8"
     inkscape:window-maximized="1" />
  <metadata
     id="metadata5">
    <rdf:RDF>
      <cc:Work
         rdf:about="">
        <dc:format>image/svg+xml</dc:format>
        <dc:type
           rdf:resource="http://purl.org/dc/dcmitype/StillImage" />
        <dc:title></dc:title>
      </cc:Work>
    </rdf:RDF>
  </metadata>
  <g
     inkscape:label="Camada 1"
     inkscape:groupmode="layer"
     id="layer1">
    <g
       id="g91"
       transform="translate(0.28413139,-0.24503528)">
      <g
         id="g71"
         transform="translate(-6.1258819,-15.604065)">
        <g
           id="g1094"
           transform="matrix(1.2432536,0,0,1.2432536,-24.18788,-12.461434)"
           inkscape:export-filename="C:\Users\PC\Desktop\perceptron\img\logo.png"
           inkscape:export-xdpi="300"
           inkscape:export-ydpi="300">
          <path
             id="path976"
             style="font-style:normal;font-variant:normal;font-weight:900;font-stretch:normal;font-size:21.005px;line-height:1.25;font-family:'Source Sans Pro';-inkscape-font-specification:'Source Sans Pro Heavy';fill:#000000;fill-opacity:1;stroke:none;stroke-width:1.98473"
             d="m 173.67773,131.61523 v 10.79688 h 4.60547 c 2.6463,0 4.68233,0.47702 6.11133,1.42969 1.429,0.95266 2.14453,2.59313 2.14453,4.92187 0,2.32875 -0.66122,4.12822 -1.98437,5.39844 -1.27023,1.27022 -3.25586,1.9043 -5.95508,1.9043 h -4.92188 v 10.79882 h 5.55665 c 2.69922,0 5.29372,-0.34516 7.78124,-1.0332 2.48753,-0.74096 4.68256,-1.8249 6.5879,-3.25391 1.90533,-1.48192 3.41394,-3.3609 4.52539,-5.63671 1.16437,-2.27582 1.74804,-5.00218 1.74804,-8.17774 0,-3.22848 -0.58367,-5.92769 -1.74804,-8.09765 -1.11145,-2.2229 -2.62006,-3.99521 -4.52539,-5.31836 -1.90534,-1.37608 -4.12753,-2.33012 -6.66797,-2.85938 -2.54045,-0.58218 -5.2125,-0.87305 -8.01758,-0.87305 z"
             transform="scale(0.26458333)" />
          <path
             d="M 55.110418,48.476532 V 34.823283 h 8.822099 v 3.024719 h -5.209239 v 2.14251 h 4.453059 v 3.02472 h -4.453059 v 2.43658 h 5.419289 v 3.02472 z"
             style="font-style:normal;font-variant:normal;font-weight:900;font-stretch:normal;font-size:21.005px;line-height:1.25;font-family:'Source Sans Pro';-inkscape-font-specification:'Source Sans Pro Heavy';fill:#000000;fill-opacity:1;stroke:none;stroke-width:0.525126"
             id="path978" />
          <path
             d="M 66.789193,48.476532 V 34.823283 h 5.167229 q 1.09226,0 2.079495,0.21005 1.00824,0.21005 1.743415,0.714169 0.75618,0.50412 1.197285,1.365325 0.441105,0.8402 0.441105,2.121505 0,1.47035 -0.609145,2.43658 -0.58814,0.96623 -1.59638,1.51236 l 2.961705,5.29326 h -4.03296 l -2.35256,-4.57909 h -1.38633 v 4.57909 z m 3.612859,-7.43577 h 1.30231 q 2.18452,0 2.18452,-1.80643 0,-0.88221 -0.567135,-1.21829 -0.54613,-0.33608 -1.617385,-0.33608 h -1.30231 z"
             style="font-style:normal;font-variant:normal;font-weight:900;font-stretch:normal;font-size:21.005px;line-height:1.25;font-family:'Source Sans Pro';-inkscape-font-specification:'Source Sans Pro Heavy';fill:#000000;fill-opacity:1;stroke:none;stroke-width:0.525126"
             id="path980" />
          <path
             d="m 85.945734,48.728592 q -1.30231,0 -2.499595,-0.4201 -1.17628,-0.441105 -2.079495,-1.30231 -0.88221,-0.88221 -1.407335,-2.18452 -0.525125,-1.323315 -0.525125,-3.06673 0,-1.72241 0.54613,-3.045725 0.54613,-1.34432 1.449345,-2.247535 0.92422,-0.92422 2.1005,-1.407334 1.197285,-0.483115 2.499595,-0.483115 1.365325,0 2.43658,0.54613 1.071255,0.525124 1.80643,1.260299 l -1.89045,2.31055 q -0.50412,-0.441105 -1.05025,-0.71417 -0.525125,-0.29407 -1.21829,-0.29407 -0.609145,0 -1.155275,0.273065 -0.525125,0.273065 -0.945225,0.777185 -0.399095,0.50412 -0.651155,1.239295 -0.231055,0.735175 -0.231055,1.659395 0,1.93246 0.79819,2.961705 0.819195,1.029245 2.14251,1.029245 0.79819,0 1.407335,-0.33608 0.63015,-0.357085 1.071255,-0.8402 l 1.89045,2.26854 q -0.88221,1.00824 -2.037485,1.51236 -1.13427,0.50412 -2.457585,0.50412 z"
             style="font-style:normal;font-variant:normal;font-weight:900;font-stretch:normal;font-size:21.005px;line-height:1.25;font-family:'Source Sans Pro';-inkscape-font-specification:'Source Sans Pro Heavy';fill:#000000;fill-opacity:1;stroke:none;stroke-width:0.525126"
             id="path982" />
          <path
             d="M 92.331223,48.476532 V 34.823283 h 8.822097 v 3.024719 h -5.209237 v 2.14251 h 4.453057 v 3.02472 h -4.453057 v 2.43658 h 5.419287 v 3.02472 z"
             style="font-style:normal;font-variant:normal;font-weight:900;font-stretch:normal;font-size:21.005px;line-height:1.25;font-family:'Source Sans Pro';-inkscape-font-specification:'Source Sans Pro Heavy';fill:#000000;fill-opacity:1;stroke:none;stroke-width:0.525126"
             id="path984" />
          <path
             d="M 104.01,48.476532 V 34.823283 h 4.99919 q 1.11326,0 2.1215,0.231055 1.00824,0.21005 1.76442,0.756179 0.75618,0.525125 1.19729,1.407335 0.46211,0.861205 0.46211,2.14251 0,1.2603 -0.46211,2.163515 -0.44111,0.903215 -1.19729,1.491355 -0.75618,0.567135 -1.74341,0.861205 -0.98724,0.273065 -2.05849,0.273065 h -1.47035 v 4.32703 z m 3.61286,-7.18371 h 1.30231 q 1.07125,0 1.57537,-0.50412 0.52513,-0.50412 0.52513,-1.42834 0,-0.92422 -0.56714,-1.30231 -0.56713,-0.37809 -1.61738,-0.37809 h -1.21829 z"
             style="font-style:normal;font-variant:normal;font-weight:900;font-stretch:normal;font-size:21.005px;line-height:1.25;font-family:'Source Sans Pro';-inkscape-font-specification:'Source Sans Pro Heavy';fill:#000000;fill-opacity:1;stroke:none;stroke-width:0.525126"
             id="path986" />
          <path
             d="m 119.1756,48.476532 v -10.62853 h -3.61286 v -3.024719 h 10.83858 v 3.024719 h -3.61286 v 10.62853 z"
             style="font-style:normal;font-variant:normal;font-weight:900;font-stretch:normal;font-size:21.005px;line-height:1.25;font-family:'Source Sans Pro';-inkscape-font-specification:'Source Sans Pro Heavy';fill:#000000;fill-opacity:1;stroke:none;stroke-width:0.525126"
             id="path988" />
          <path
             d="M 128.41778,48.476532 V 34.823283 h 5.16723 q 1.09226,0 2.0795,0.21005 1.00824,0.21005 1.74341,0.714169 0.75618,0.50412 1.19729,1.365325 0.4411,0.8402 0.4411,2.121505 0,1.47035 -0.60914,2.43658 -0.58814,0.96623 -1.59638,1.51236 l 2.9617,5.29326 h -4.03296 l -2.35256,-4.57909 h -1.38633 v 4.57909 z m 3.61286,-7.43577 h 1.30231 q 2.18452,0 2.18452,-1.80643 0,-0.88221 -0.56713,-1.21829 -0.54613,-0.33608 -1.61739,-0.33608 h -1.30231 z"
             style="font-style:normal;font-variant:normal;font-weight:900;font-stretch:normal;font-size:21.005px;line-height:1.25;font-family:'Source Sans Pro';-inkscape-font-specification:'Source Sans Pro Heavy';fill:#000000;fill-opacity:1;stroke:none;stroke-width:0.525126"
             id="path990" />
          <path
             d="m 147.40628,48.728592 q -1.42834,0 -2.60462,-0.483115 -1.15527,-0.483115 -1.99547,-1.38633 -0.8192,-0.92422 -1.28131,-2.247535 -0.46211,-1.34432 -0.46211,-3.02472 0,-1.6804 0.46211,-2.98271 0.46211,-1.323315 1.28131,-2.205525 0.8402,-0.903214 1.99547,-1.365324 1.17628,-0.46211 2.60462,-0.46211 1.40734,0 2.58362,0.46211 1.17628,0.46211 1.99547,1.365324 0.8402,0.903215 1.30231,2.205525 0.46211,1.30231 0.46211,2.98271 0,1.6804 -0.46211,3.02472 -0.46211,1.323315 -1.30231,2.247535 -0.81919,0.903215 -1.99547,1.38633 -1.17628,0.483115 -2.58362,0.483115 z m 0,-3.10874 q 1.2393,0 1.93246,-1.071255 0.71417,-1.09226 0.71417,-2.961705 0,-1.869445 -0.71417,-2.877685 -0.69316,-1.029245 -1.93246,-1.029245 -1.23929,0 -1.95346,1.029245 -0.69317,1.00824 -0.69317,2.877685 0,1.869445 0.69317,2.961705 0.71417,1.071255 1.95346,1.071255 z"
             style="font-style:normal;font-variant:normal;font-weight:900;font-stretch:normal;font-size:21.005px;line-height:1.25;font-family:'Source Sans Pro';-inkscape-font-specification:'Source Sans Pro Heavy';fill:#000000;fill-opacity:1;stroke:none;stroke-width:0.525126"
             id="path992" />
          <path
             id="path994"
             style="font-style:normal;font-variant:normal;font-weight:900;font-stretch:normal;font-size:21.005px;line-height:1.25;font-family:'Source Sans Pro';-inkscape-font-specification:'Source Sans Pro Heavy';fill:#000000;fill-opacity:1;stroke:none;stroke-width:1.98473"
             d="m 590.31055,131.61523 v 51.60352 h 13.01953 v -0.12695 h 0.0469 v -31.03711 l 3.44727,8.06054 11.43164,23.10352 h 13.97266 v -1.79102 -34.80859 h -13.01758 c 0.002,1.21364 0.0406,2.48559 0.10351,3.79102 v 12.70507 l -3.59961,-8.47656 -11.43164,-23.02344 z"
             transform="scale(0.26458333)" />
          <path
             id="circle29"
             d="m 35.457423,37.201442 a 0.48041234,0.48041234 0 0 1 -0.480412,0.480413 0.48041234,0.48041234 0 0 1 -0.480413,-0.480413 0.48041234,0.48041234 0 0 1 0.480413,-0.480412 0.48041234,0.48041234 0 0 1 0.480412,0.480412 z"
             style="stroke-width:0.480413" />
          <path
             d="m 37.379072,37.201442 c 0,-1.633882 -1.897629,-3.104425 -2.113814,-3.266803 l -0.288247,-0.216186 -0.288248,0.216186 c -0.216185,0.162378 -2.113814,1.632921 -2.113814,3.266803 0,1.324497 1.077565,2.402062 2.402062,2.402062 1.324496,0 2.402061,-1.077565 2.402061,-2.402062 z m -3.843299,0 c 0,-0.820544 0.873871,-1.763113 1.441238,-2.261301 0.567366,0.498188 1.441237,1.440757 1.441237,2.261301 0,0.794602 -0.646635,1.441237 -1.441237,1.441237 -0.794602,0 -1.441238,-0.646635 -1.441238,-1.441237 z"
             id="path31"
             style="stroke-width:0.480413" />
          <path
             id="path33"
             style="stroke-width:0.480414"
             d="m 36.898816,24.710867 c -0.762894,0 -1.471067,0.378968 -1.89335,1.013113 l -0.02857,0.04218 -0.560976,-0.84169 -0.799515,0.532859 0.880237,1.320583 v 1.109708 l -1.33827,-0.446242 C 32.809593,27.325114 32.575175,27.00033 32.575175,26.632335 h -0.96096 c 0,0.78163 0.498077,1.473154 1.240315,1.720567 l 1.642112,0.546918 v 2.776761 l -0.961414,0.721061 c -0.232039,0.174872 -0.910997,0.718265 -1.551866,1.512867 -0.347339,-0.492903 -0.806373,-0.899011 -1.339631,-1.179093 -0.02498,-0.664889 -0.209798,-1.313948 -0.552813,-1.88564 l -0.453043,-0.754619 c -0.278159,-0.464077 -0.425834,-0.99545 -0.425834,-1.537354 h -0.96096 c 0,0.715813 0.194794,1.41818 0.56279,2.031666 l 0.45259,0.75462 c 0.190723,0.31755 0.314402,0.667661 0.376856,1.02989 l -1.755941,-0.438531 -0.233098,0.931936 1.921468,0.480253 c 0.176791,0.0442 0.345537,0.109095 0.507916,0.185481 l -0.03855,0.13242 c -0.130672,0.392978 -0.49696,0.657571 -0.911076,0.657571 h -1.249837 c -0.845526,0 -1.605966,0.470088 -1.98405,1.226256 l 0.859377,0.429917 c 0.214264,-0.429009 0.645221,-0.695666 1.124673,-0.695666 h 1.249837 c 0.772504,0 1.456721,-0.462477 1.762744,-1.17637 0.193606,0.196008 0.357798,0.41928 0.487509,0.665732 -0.4194,0.706688 -0.731037,1.531786 -0.731037,2.43256 0,0.872909 0.26488,1.694935 0.725595,2.387209 -0.363672,0.187361 -0.680358,0.437128 -0.937379,0.737386 l -0.962774,-0.641698 -0.532859,0.79906 0.993159,0.662107 c -0.147487,0.354061 -0.233547,0.736279 -0.241714,1.136464 l -0.625826,0.626278 c -0.347338,0.347338 -0.809648,0.538301 -1.30063,0.538301 v 0.96096 c 0.748002,0 1.451515,-0.290988 1.979968,-0.819923 l 0.144213,-0.144664 c 0.03747,0.09993 0.07803,0.198263 0.126072,0.293865 l 0.545103,1.091115 c 0.05717,0.113378 0.08707,0.240902 0.08707,0.368692 0,0.257983 -0.123569,0.504664 -0.330146,0.659839 l -0.246249,0.184573 c -0.842163,0.631742 -1.345073,1.637561 -1.345073,2.690146 h 0.960507 c 0,-0.751847 0.359484,-1.470361 0.960961,-1.921467 l 0.247156,-0.185028 c 0.446783,-0.335808 0.713804,-0.869343 0.713804,-1.428063 0,-0.275756 -0.06522,-0.551677 -0.188201,-0.798607 l -0.545557,-1.091114 c -0.148448,-0.296895 -0.227202,-0.629903 -0.227202,-0.961868 0,-0.883959 0.530396,-1.667718 1.351421,-1.99584 l 0.0095,-0.0041 c 0.305543,0.286807 0.653083,0.534338 1.040776,0.726504 v 1.894709 c 0,0.354065 0.194408,0.660475 0.480253,0.827179 v 5.418383 c 0,1.455168 0.611451,2.86195 1.677486,3.858807 0.99061,0.926714 2.257987,1.42534 3.60122,1.42534 0.121545,0 0.244375,-0.0041 0.366879,-0.01179 2.761411,-0.184477 4.924072,-2.574837 4.924072,-5.442417 v -8.957928 c 0,-0.689393 0.297849,-1.346659 0.817655,-1.804012 0.423275,-0.372591 0.938,-0.581304 1.491857,-0.599218 l 0.0047,-0.952195 c -0.300868,0.0089 -0.598229,0.05246 -0.883412,0.138316 l -0.600884,-0.800421 c 0.399704,-0.161899 0.827462,-0.266348 1.275688,-0.296136 0.06978,-0.0048 0.139274,-0.0072 0.208608,-0.0086 l -0.08153,-0.936504 c -0.09068,0.0016 -0.283703,-0.007 -0.374915,-8.99e-4 -2.76093,0.183997 -4.740181,2.562155 -4.740181,5.429736 v 8.957928 c 0,0.689392 -0.297849,1.346205 -0.817655,1.803558 -0.526052,0.462637 -1.20003,0.669514 -1.902874,0.577755 -1.18755,-0.151816 -2.08379,-1.219472 -2.08379,-2.481994 v -5.317708 c 0.285845,-0.166703 0.480707,-0.473114 0.480707,-0.827179 v -1.894709 c 1.469582,-0.728307 2.401721,-2.213683 2.401721,-3.870144 0,-0.527493 -0.109608,-1.027285 -0.282075,-1.494727 l 1.005403,-1.173651 c 0.902214,-1.052104 2.214776,-1.655265 3.600766,-1.655265 v -0.96096 c -0.607242,0 -1.202366,0.09901 -1.766371,0.28253 l 0.07664,-0.152375 c 0.145085,-0.290169 0.22538,-0.610861 0.241714,-0.934658 l 0.353728,-0.531045 c 0.24405,-0.367516 0.65375,-0.585919 1.094288,-0.585919 v -0.960959 c -0.679303,0 -1.313753,0.301826 -1.743242,0.815388 -0.01201,-0.02162 -0.02107,-0.04507 -0.03356,-0.06621 l -0.90746,-1.511961 c -0.129711,-0.216667 -0.198632,-0.464762 -0.198632,-0.716979 0,-0.214743 0.05131,-0.430486 0.147387,-0.622651 l 0.282529,-0.565511 -0.859831,-0.429915 -0.282529,0.565511 c -0.162379,0.325239 -0.248062,0.689375 -0.248062,1.052566 0,0.327161 0.06887,0.6491 0.199538,0.945995 l -0.981821,-0.393182 -0.356902,0.892482 2.125541,0.850307 0.256225,0.427649 c 0.129712,0.216185 0.198632,0.464311 0.198632,0.716523 0,0.214746 -0.05085,0.430489 -0.146933,0.622654 l -0.643512,1.286117 c -0.416998,0.282481 -0.803003,0.614374 -1.137371,1.004949 l -0.730584,0.851667 C 37.816537,33.505056 36.726054,32.629212 36.41811,32.397173 L 35.457603,31.676565 V 30.32061 l 2.100145,-0.84033 -0.356902,-0.89203 -1.743243,0.69748 v -2.507823 l 0.347379,-0.520615 c 0.24405,-0.367034 0.653298,-0.585918 1.093835,-0.585918 z m -1.92192,7.806499 0.863912,0.648046 c 0.417478,0.314191 2.499222,1.984765 2.499222,4.036126 0,1.373017 -0.825476,2.595771 -2.102412,3.114617 l -0.299762,0.121991 v 2.528246 h -1.921467 v -2.528246 l -0.299762,-0.121991 c -1.276936,-0.518846 -2.102412,-1.7416 -2.102412,-3.114617 0,-2.051361 2.081344,-3.721963 2.497862,-4.035671 z m 9.107581,4.016169 0.564604,0.752806 c -0.125388,0.08311 -0.247552,0.172146 -0.36189,0.272552 -0.07687,0.06774 -0.148019,0.140095 -0.217679,0.213597 l -0.806771,-0.483881 c 0.242128,-0.286325 0.517635,-0.539847 0.821736,-0.755074 z m -1.360944,1.552321 0.791352,0.474811 c -0.238285,0.467922 -0.37096,0.987639 -0.37096,1.523298 v 0.480253 h -0.960507 v -0.310192 c 0,-0.784033 0.197581,-1.522975 0.540115,-2.16817 z m -0.540115,3.439322 h 0.960507 v 0.96096 h -0.960507 z m 0,1.921467 h 0.960507 v 2.402173 h -0.960507 z m -7.686776,0.480706 h 0.960961 v 1.921467 h -0.960961 z m 0,2.88243 h 0.960961 v 0.960504 h -0.960961 z m 7.686776,0 h 0.960507 v 0.960504 h -0.960507 z m -7.686776,1.921467 h 0.960961 v 0.38003 c 0,0.580337 0.141261,1.128834 0.388193,1.613088 l -0.841237,0.505196 c -0.327161,-0.617811 -0.507917,-1.309481 -0.507917,-2.017608 z m 7.686776,0 h 0.960507 v 0.310645 c 0,0.784033 -0.198035,1.522524 -0.540569,2.167714 l -0.790899,-0.474356 c 0.238284,-0.467922 0.370961,-0.987638 0.370961,-1.523297 z m -5.78617,2.782656 c 0.171508,0.183997 0.359787,0.35123 0.567325,0.492952 l -0.578662,0.770945 c -0.179674,-0.123465 -0.353701,-0.256311 -0.51608,-0.4086 -0.115779,-0.108094 -0.22419,-0.223221 -0.326517,-0.342845 z m 4.860582,0.0091 0.806771,0.484335 c -0.242127,0.286326 -0.518089,0.539395 -0.82219,0.75462 l -0.56415,-0.752806 c 0.125387,-0.08311 0.247099,-0.172144 0.361437,-0.27255 0.07687,-0.06774 0.148472,-0.140094 0.218132,-0.213599 z m -1.465702,0.905634 0.60043,0.800423 c -0.400184,0.16238 -0.82701,0.265867 -1.275234,0.296133 -0.65192,0.04564 -1.286786,-0.05777 -1.87385,-0.28933 l 0.604965,-0.806771 c 0.171988,0.05236 0.348942,0.09391 0.531499,0.117456 0.479932,0.06053 0.960602,0.01804 1.41219,-0.117911 z"
             sodipodi:nodetypes="ccccccccccccccccccccccccccccssccssccscccccccccccccsccccccscsscccscscscsscccccccccssccscscscccccccccccccsccccscccccsccccccccccccccccsccccccsccccccccccsccsccccccccccccccccccccccccccccsccscccsccscccccccccccccccccccc" />
          <path
             id="path33-0"
             style="stroke-width:0.572953"
             d="m 170.04035,27.278963 c -0.1092,0.0019 -0.21876,0.0064 -0.32861,0.01367 -3.29277,0.219442 -5.87237,3.070268 -5.87237,6.490221 v 8.167902 h 1.14613 v -0.349141 h 1.14582 v 0.349151 h 1.14581 v -8.370485 c 0,-0.822188 0.35521,-1.606122 0.97515,-2.151574 0.62681,-0.551753 1.42953,-0.799681 2.26947,-0.688528 1.41635,0.181052 2.48509,1.453914 2.48509,2.959634 v 2.744997 c 0,0.631969 0.51385,1.146139 1.14581,1.146139 v 3.130954 l -2.09588,1.396925 c -0.25782,-0.654305 -0.88532,-1.090117 -1.59462,-1.090117 h -0.89306 v 1.145813 h 0.89306 c 0.24694,0 0.466,0.156913 0.54392,0.391819 l 0.0693,0.208118 -1.82391,1.215839 0.63543,0.953323 2.01575,-1.343512 0.36317,0.363155 c 0.10657,0.106565 0.16773,0.253829 0.16773,0.40452 v 1.244498 h 1.14614 v -1.2445 c 0,-0.458936 -0.17901,-0.890895 -0.50386,-1.215187 l -0.2016,-0.201933 1.28162,-0.854639 c 0.0206,0.631969 0.3778,1.195554 0.94616,1.480309 l 1.77995,0.88981 -1.77929,0.889813 c -0.58614,0.292778 -0.95007,0.882417 -0.95007,1.537302 v 0.656612 l -1.97505,0.987848 0.51299,1.024977 1.46206,-0.73152 v 1.937587 h 1.14581 v -3.875504 c 0,-0.218292 0.12153,-0.414675 0.3169,-0.512651 l 1.97504,-0.98687 v 1.364355 h 1.14583 v -1.58355 c 0,-0.655461 -0.36396,-1.244601 -0.95007,-1.537957 l -2.1708,-1.085555 c -0.19537,-0.0974 -0.31689,-0.293381 -0.3169,-0.511676 v -0.240692 l 4.99233,1.497568 0.32863,-1.097608 -1.48617,-0.445883 0.313,-0.468682 c 0.106,-0.160429 0.28391,-0.255349 0.47584,-0.255349 h 1.10608 V 39.882572 H 179.922 c -0.5758,0 -1.11011,0.285835 -1.42981,0.765393 l -0.50713,0.76051 -2.68669,-0.806107 v -3.011421 c 0.63198,0 1.1458,-0.51417 1.1458,-1.146139 v -2.864529 c 0,-1.735475 -0.72905,-3.413912 -2.00044,-4.602791 -1.20856,-1.130149 -2.76522,-1.725709 -4.40347,-1.698524 z m 0.0391,1.144835 c 0.67594,-0.0083 1.33117,0.116652 1.94279,0.357294 l -0.72077,0.961464 c -0.20512,-0.06245 -0.41575,-0.111649 -0.63348,-0.139725 -0.57239,-0.07162 -1.14596,-0.02145 -1.68452,0.140702 l -0.71621,-0.954951 c 0.4767,-0.193085 0.98646,-0.317535 1.52102,-0.35306 0.0973,-0.0067 0.1946,-0.01055 0.29117,-0.01173 z m 2.96549,0.903491 c 0.21429,0.14725 0.42257,0.305947 0.61624,0.487574 0.13807,0.128913 0.26683,0.26576 0.38888,0.408427 l -1.01814,0.611338 c -0.20455,-0.219439 -0.42929,-0.418867 -0.67681,-0.587888 z m -5.79192,0.0189 0.67322,0.897629 c -0.14954,0.09912 -0.29486,0.205303 -0.43122,0.32505 -0.0917,0.0808 -0.17714,0.167034 -0.26024,0.254697 l -0.96212,-0.577466 c 0.28877,-0.341481 0.61769,-0.643226 0.98036,-0.89991 z m 7.43996,1.827504 c 0.39019,0.736815 0.60549,1.562062 0.60548,2.406596 v 0.572906 h -1.14581 V 33.69982 c 0,-0.692127 -0.16864,-1.346371 -0.46315,-1.923909 z m -9.06292,0.02345 0.94356,0.566065 c -0.28417,0.558058 -0.44229,1.178239 -0.44229,1.817081 v 0.572905 h -1.14582 v -0.370322 c 0,-0.935059 0.23605,-1.816255 0.64455,-2.585729 z m -0.64455,4.101864 h 1.14582 v 1.145811 h -1.14582 z m 9.16714,0 h 1.14581 v 1.145811 h -1.14581 z m -9.16714,2.29195 h 1.14582 v 2.86453 h -1.14582 z" />
          <text
             xml:space="preserve"
             style="font-style:normal;font-weight:normal;font-size:3.81689px;line-height:1.25;font-family:sans-serif;fill:#4d4d4d;fill-opacity:1;stroke:none;stroke-width:0.0954228"
             x="55.058617"
             y="55.476429"
             id="text1056"><tspan
               sodipodi:role="line"
               id="tspan1054"
               x="55.058617"
               y="55.476429"
               style="fill:#4d4d4d;stroke-width:0.0954228">Pós-Graduação em Data Science and Business Intelligence</tspan></text>
        </g>
      </g>
    </g>
  </g>
</svg>
